<?xml version="1.0" standalone="no"?>
<!DOCTYPE svg PUBLIC "-//W3C//DTD SVG 20010904//EN"
 "http://www.w3.org/TR/2001/REC-SVG-20010904/DTD/svg10.dtd">
<svg version="1.0" xmlns="http://www.w3.org/2000/svg"
 width="512.000000pt" height="512.000000pt" viewBox="0 0 512.000000 512.000000"
 preserveAspectRatio="xMidYMid meet">

<g transform="translate(0.000000,512.000000) scale(0.100000,-0.100000)"
fill="#000000" stroke="none">
<path d="M2430 4899 c-161 -19 -358 -93 -486 -184 -267 -191 -415 -457 -449
-806 l-6 -66 -87 -6 c-48 -4 -144 -19 -214 -35 -112 -25 -136 -34 -200 -77
-102 -67 -200 -165 -268 -266 -86 -129 -118 -241 -144 -506 -9 -81 -45 -425
-81 -764 -36 -339 -65 -656 -65 -706 0 -518 366 -1011 876 -1182 200 -67 176
-66 1254 -66 894 0 983 1 1070 18 593 112 1032 605 1057 1187 4 108 -4 207
-61 745 -37 341 -73 687 -82 768 -27 274 -58 377 -155 522 -161 241 -351 349
-636 362 l-122 6 -6 66 c-22 232 -89 412 -213 577 -177 234 -436 380 -735 413
-107 12 -139 12 -247 0z m267 -435 c185 -38 350 -162 433 -324 28 -55 59 -165
66 -235 l7 -65 -642 0 -641 0 0 30 c0 17 7 65 16 107 72 348 405 561 761 487z
m1170 -1096 c88 -46 133 -85 178 -153 49 -73 36 21 155 -1092 63 -592 68 -661
59 -735 -35 -283 -215 -533 -474 -658 -187 -90 -106 -84 -1175 -88 -655 -2
-969 0 -1022 8 -378 54 -681 361 -727 737 -9 75 -5 138 49 635 32 304 71 662
85 795 14 133 30 265 35 294 23 120 158 250 295 285 39 10 315 12 1260 11
l1210 -2 72 -37z"/>
<path d="M1641 2978 c-30 -7 -56 -23 -86 -53 -59 -58 -71 -116 -55 -261 20
-185 75 -339 176 -490 162 -244 428 -411 723 -454 117 -18 322 -8 431 20 460
120 786 529 793 995 1 85 -2 106 -20 140 -49 92 -150 132 -256 101 -95 -28
-147 -106 -147 -221 -1 -202 -129 -425 -301 -528 -109 -64 -205 -90 -339 -90
-97 0 -128 4 -195 26 -262 85 -419 290 -444 579 -5 58 -14 116 -21 129 -25 48
-74 90 -124 104 -56 17 -72 17 -135 3z"/>
</g>
</svg>
